# xmcd CD database file
#
# Track frame offsets:
#	150
#	14372
#	28520
#
# Disc length: 615 seconds
#
# Revision: 0
# Processed by: cddbd v1.5.2PL0 Copyright (c) Steve Scherf et al.
# Submitted via: CDex 1.51
#
DISCID=18026503
DTITLE=Michael Buble - Sway
DYEAR=1900
DGENRE=Jazz
TTITLE0=Sway (Junkie XL Mix)
TTITLE1=Sway (Album Version)
TTITLE2=Moondance (Live Album Version)
EXTD=
EXTT0=
EXTT1=
EXTT2=
PLAYORDER=
